<?xml version="1.0" standalone="no"?>
<!DOCTYPE svg PUBLIC "-//W3C//DTD SVG 20010904//EN"
 "http://www.w3.org/TR/2001/REC-SVG-20010904/DTD/svg10.dtd">
<svg version="1.0" xmlns="http://www.w3.org/2000/svg"
 width="1032.000000pt" height="1032.000000pt" viewBox="0 0 1032.000000 1032.000000"
 preserveAspectRatio="xMidYMid meet">
<metadata>
Created by potrace 1.14, written by Peter Selinger 2001-2017
</metadata>
<g transform="translate(0.000000,1032.000000) scale(0.100000,-0.100000)"
fill="#000000" stroke="none">
<path d="M0 5160 l0 -5160 760 0 760 0 0 35 c0 19 4 35 9 35 5 0 7 21 5 48 -2
26 -3 50 -4 55 0 14 -20 7 -20 -8 0 -21 -6 -19 -66 20 -30 20 -59 35 -66 33
-7 -1 -33 11 -58 28 -25 17 -72 45 -105 62 -61 30 -206 122 -193 122 3 0 98
-45 211 -101 134 -66 213 -99 228 -97 20 3 14 9 -36 31 -33 15 -133 62 -223
105 -158 75 -161 77 -125 83 51 8 42 11 -49 13 -54 1 -82 7 -95 18 -10 9 -28
19 -41 22 -12 4 -27 17 -34 29 -6 12 -31 47 -55 78 -23 30 -43 61 -43 67 0 33
94 436 115 495 14 38 25 70 25 73 0 9 -16 3 -37 -14 -26 -20 -38 -61 -83 -287
-17 -88 -34 -169 -38 -180 -10 -33 -33 126 -41 290 -6 126 -5 155 8 180 9 17
18 32 21 35 3 3 6 11 8 19 7 31 31 81 40 81 11 0 91 119 125 187 14 27 38 58
54 68 15 10 41 29 56 44 l28 26 19 -25 c11 -14 20 -30 20 -36 0 -7 7 -14 15
-18 20 -7 19 -23 -6 -58 -30 -41 -16 -47 19 -7 l29 32 35 -26 c51 -40 185 -91
240 -91 29 -1 44 -5 40 -11 -4 -6 -32 -44 -63 -85 -57 -75 -76 -96 -142 -158
-23 -22 -42 -52 -52 -85 -22 -74 -44 -229 -45 -319 0 -51 -4 -78 -13 -81 -9
-4 -9 -6 0 -6 7 -1 16 -19 19 -41 8 -51 34 -55 34 -6 0 41 5 45 48 39 37 -6
42 -28 16 -69 -11 -16 -14 -28 -7 -35 6 -6 19 3 36 29 30 43 35 72 11 72 -8 0
-13 4 -10 9 3 4 17 64 32 132 14 68 30 128 35 133 5 6 9 19 9 30 0 11 11 31
24 45 14 15 44 62 67 106 23 44 56 98 74 120 18 22 56 86 85 142 29 56 63 112
76 124 l24 22 0 -26 c0 -41 17 -32 40 20 11 26 32 62 45 79 14 18 24 39 23 46
-2 7 8 14 22 16 14 2 31 11 38 20 11 14 12 14 12 0 0 -10 16 -22 43 -31 25 -8
41 -20 40 -28 -1 -8 -17 -51 -36 -96 -24 -58 -37 -79 -45 -71 -17 17 -75 25
-104 15 -29 -9 -37 -25 -15 -31 79 -22 121 -28 125 -18 3 9 9 9 23 1 15 -8 21
-6 26 8 3 10 17 43 30 73 23 54 24 54 18 15 -10 -62 -46 -138 -77 -164 -24
-19 -28 -29 -23 -51 10 -44 -46 -172 -108 -250 -29 -36 -65 -91 -81 -122 -15
-32 -32 -58 -37 -58 -5 0 -9 -5 -9 -11 0 -6 -9 -24 -20 -40 -15 -20 -25 -61
-36 -140 -8 -61 -17 -121 -20 -133 -6 -27 27 -116 49 -130 27 -17 32 2 13 55
-10 27 -16 52 -14 55 6 5 118 -35 132 -47 4 -4 -4 -23 -19 -43 -25 -33 -28
-66 -6 -66 13 0 149 153 207 235 51 70 101 168 123 237 7 20 19 42 27 49 13
10 14 5 12 -44 -4 -64 -5 -63 80 -73 38 -4 69 -14 86 -28 l27 -21 -46 -135
c-42 -121 -51 -139 -91 -176 -49 -45 -54 -57 -21 -52 15 2 25 -4 31 -18 12
-26 65 -36 196 -38 101 -2 210 -31 210 -57 0 -9 7 -22 14 -29 12 -9 13 -17 4
-38 -6 -15 -11 -73 -12 -129 l-1 -103 33 0 c24 0 32 4 32 18 0 30 31 196 41
214 5 10 6 44 3 76 l-7 60 51 16 c29 10 57 14 63 10 8 -5 9 -3 4 6 -6 10 -4
12 9 7 18 -7 62 10 52 20 -3 3 -12 0 -21 -7 -9 -7 -18 -10 -21 -7 -3 3 8 13
25 22 66 33 181 118 223 162 83 89 131 133 143 133 7 0 47 51 89 114 42 62 88
127 103 143 16 16 41 56 58 87 16 32 47 78 67 103 89 107 204 329 290 558 16
44 35 89 43 100 7 12 18 46 24 77 8 38 18 59 29 62 9 3 23 19 31 36 7 17 32
54 55 82 66 83 109 140 144 190 18 26 57 74 86 105 29 32 62 76 74 98 11 22
45 78 76 124 31 45 56 85 56 88 0 3 18 32 40 65 60 91 87 207 60 258 -13 24
-92 54 -123 46 -54 -13 -210 -129 -303 -224 -107 -108 -108 -106 -14 23 190
265 179 252 228 261 20 3 60 21 88 40 28 19 79 46 114 60 95 38 194 90 210
109 8 9 79 48 158 86 134 64 150 75 227 151 45 46 99 109 120 140 20 32 52 66
69 76 17 11 59 43 92 73 34 30 89 76 123 103 63 52 64 53 61 99 -2 31 16 36
36 10 8 -10 35 -53 61 -95 26 -43 51 -78 55 -78 5 0 15 -15 23 -32 10 -25 15
-29 20 -17 4 10 -9 38 -34 74 -23 32 -41 63 -41 70 0 6 -16 38 -36 71 -63 103
-142 257 -153 300 -16 58 -48 84 -118 94 -32 5 -93 14 -135 21 l-78 13 0 36
c0 20 -5 41 -11 47 -16 16 51 56 151 90 46 15 84 33 87 39 8 21 -48 116 -101
173 -54 57 -79 102 -89 158 -5 28 -3 32 21 37 15 3 86 25 157 47 129 41 155
51 355 136 58 25 151 62 208 84 226 86 419 189 526 281 5 4 7 10 3 14 -3 3
-27 -11 -52 -32 -26 -22 -52 -38 -57 -36 -6 2 -25 -10 -42 -26 -36 -35 -103
-69 -201 -105 -38 -14 -164 -63 -280 -110 -263 -106 -520 -196 -605 -210 -83
-15 -217 -11 -272 7 -24 8 -56 17 -73 21 -43 9 -57 22 -105 100 -23 39 -50 77
-60 85 -21 19 -128 164 -243 331 -106 155 -163 270 -172 347 -4 31 -18 140
-31 242 -50 370 -49 363 -37 367 13 5 38 71 30 79 -3 3 -10 -11 -17 -30 -6
-20 -15 -34 -19 -32 -4 3 -8 -7 -9 -20 -1 -14 -9 -39 -19 -57 -11 -21 -16 -52
-15 -92 2 -64 -14 -110 -38 -110 -8 0 -41 -18 -73 -39 -31 -21 -59 -37 -61
-35 -3 2 14 24 36 49 63 72 98 126 99 157 0 25 1 26 10 8 7 -16 8 -13 4 13 -4
27 0 38 18 54 12 11 16 17 9 13 -13 -7 -11 11 8 80 11 35 8 85 -3 85 -8 0 -4
20 11 60 6 15 -10 0 -62 -57 -28 -32 -29 -66 0 -42 27 22 14 -3 -27 -52 -23
-27 -56 -58 -73 -69 -17 -10 -42 -27 -56 -37 -18 -13 -22 -13 -14 -3 6 8 16
35 23 60 7 25 22 64 33 88 23 49 19 61 -13 39 -11 -9 -27 -13 -33 -11 -7 3
-21 -4 -31 -16 -10 -11 -27 -20 -37 -20 -10 0 -37 -9 -59 -21 -43 -21 -61 -21
-34 1 8 7 15 9 15 4 0 -5 11 13 25 40 15 30 22 58 19 71 -3 13 3 45 14 71 11
27 23 65 25 84 3 19 11 49 18 65 7 17 11 33 11 38 -1 4 14 51 34 103 19 53 33
98 30 102 -10 9 -21 -9 -52 -83 -29 -71 -80 -132 -137 -161 -39 -21 -52 -9
-27 26 24 33 26 48 5 30 -13 -11 4 41 49 145 7 17 19 45 26 63 7 17 16 32 21
32 5 0 9 5 9 10 0 20 -29 9 -53 -20 -14 -16 -27 -25 -29 -19 -3 8 -15 6 -38
-6 l-35 -17 29 31 c17 17 35 31 42 31 6 0 17 7 24 15 11 13 10 14 -6 7 -51
-22 -141 -64 -159 -74 -52 -30 -77 -40 -83 -33 -4 4 1 12 11 19 9 7 17 18 17
23 0 6 10 17 23 26 12 8 19 18 15 22 -4 4 -19 -2 -34 -14 -15 -12 -30 -18 -33
-15 -3 3 9 18 28 33 19 14 62 51 95 81 34 30 79 70 101 89 l40 33 -65 -5 c-59
-5 -63 -4 -45 9 11 8 53 25 95 39 133 42 143 48 162 100 20 53 11 63 -38 45
-37 -14 -251 -60 -279 -60 -20 1 -20 1 -1 15 25 19 101 40 211 59 50 9 110 23
135 31 l45 15 -45 -5 c-25 -3 -97 -12 -160 -20 -171 -21 -260 -19 -244 7 4 6
-1 8 -12 5 -35 -10 -139 -18 -129 -10 6 4 22 24 35 43 13 19 29 38 35 42 7 5
7 8 0 8 -6 0 -21 -7 -33 -16 -13 -9 -26 -14 -29 -11 -6 6 100 77 114 77 4 -1
-3 -10 -16 -20 -13 -11 -19 -20 -14 -20 6 0 18 9 28 20 10 11 14 20 10 20 -7
0 5 11 50 48 24 19 134 82 143 82 6 0 15 6 19 13 4 7 55 44 113 82 58 39 141
97 185 130 44 33 97 72 117 85 21 14 38 28 38 33 0 4 5 7 12 7 21 0 98 42 93
50 -3 5 -1 11 5 15 5 3 10 1 10 -4 0 -6 5 -11 11 -11 6 0 9 7 6 14 -4 10 -1
13 9 9 7 -3 14 0 14 6 0 6 7 11 15 11 8 0 57 20 109 45 53 25 105 45 116 45
11 0 20 5 20 11 0 6 9 8 20 4 11 -3 25 -3 32 2 13 8 -11 14 -131 33 -36 6 -70
15 -78 21 -7 6 -13 9 -13 5 0 -4 -14 1 -31 9 -16 9 -38 15 -47 14 -21 -3 -52
10 -52 21 0 8 133 3 158 -5 7 -3 21 -1 31 4 9 6 78 11 152 12 74 1 172 9 219
17 47 9 116 17 154 18 75 3 122 20 107 38 -5 6 -21 34 -37 61 -38 69 -103 145
-125 145 -10 0 -20 8 -24 19 -6 21 3 51 16 51 5 0 9 7 9 15 0 8 -5 15 -11 15
-14 0 -7 82 8 87 7 3 21 -12 30 -33 14 -28 15 -38 6 -41 -21 -7 5 -43 31 -43
12 0 30 -8 39 -17 59 -64 97 -95 165 -135 40 -22 57 -27 65 -19 24 24 406 1
440 -27 19 -16 87 -26 87 -13 0 6 -4 11 -9 11 -17 0 -61 103 -61 144 l0 41 20
-32 c10 -18 43 -47 72 -66 91 -58 159 -97 169 -97 14 0 11 -12 -8 -26 -16 -12
-16 -13 9 -14 17 0 50 15 80 37 l53 38 -33 -43 c-37 -46 -33 -50 40 -33 21 5
57 4 86 -1 50 -10 51 -10 117 36 75 52 125 80 132 73 12 -13 -51 -90 -85 -103
-20 -8 -46 -19 -57 -23 -12 -5 11 -8 61 -6 76 1 85 4 130 37 52 37 171 108
181 108 16 0 -57 -65 -109 -97 -32 -20 -58 -38 -58 -41 0 -9 142 8 159 19 13
8 12 9 -6 4 -37 -10 -26 3 20 23 23 11 62 40 87 66 24 25 49 46 55 46 6 0 35
19 65 41 43 33 56 38 58 25 2 -9 10 -16 19 -16 22 0 -1 -26 -40 -46 -16 -9
-27 -18 -24 -21 3 -2 15 1 27 7 22 12 22 11 16 -16 -4 -16 -24 -56 -45 -89
-21 -33 -52 -85 -69 -116 -17 -30 -45 -70 -62 -87 -16 -18 -30 -35 -30 -39 0
-5 42 -7 92 -6 l93 2 -55 -18 c-49 -15 -52 -18 -30 -24 15 -3 46 -25 70 -49
l45 -42 110 0 c88 0 122 5 169 22 66 24 85 23 36 -3 -72 -37 -163 -65 -218
-66 -52 -2 -54 -2 -17 -8 l39 -6 -29 -13 -30 -14 25 -19 c51 -40 145 -115 204
-165 34 -28 80 -63 104 -78 23 -14 54 -40 68 -56 19 -21 42 -33 83 -41 80 -17
95 -28 39 -29 -27 0 -48 -4 -48 -9 0 -18 97 -88 165 -118 86 -39 215 -77 319
-93 l78 -13 -23 -18 c-31 -24 -164 -26 -235 -4 -49 15 -153 21 -141 8 4 -3 57
-18 119 -34 123 -30 101 -40 -28 -13 -42 8 -78 13 -81 11 -13 -14 185 -86 242
-88 20 0 20 0 0 -8 -11 -5 -25 -6 -31 -4 -7 2 -15 0 -19 -6 -3 -6 -20 -11 -37
-11 -30 0 -31 0 -13 -20 22 -24 14 -25 -42 -4 -44 17 -65 44 -35 44 9 1 2 7
-17 16 -19 8 -36 12 -39 10 -11 -12 105 -248 169 -343 62 -91 157 -213 167
-213 4 0 31 -23 61 -51 37 -34 51 -53 43 -61 -10 -10 -39 0 -64 25 -30 29
-112 80 -142 87 -17 4 -40 11 -51 15 -17 6 -16 3 6 -17 14 -12 41 -35 60 -50
l34 -28 -54 25 c-54 24 -128 85 -103 85 7 0 10 5 7 10 -11 18 -35 12 -28 -7 7
-17 6 -17 -20 0 -14 9 -34 17 -44 17 -9 0 -32 15 -51 33 -33 31 -34 31 -17 4
10 -15 23 -31 29 -35 23 -15 56 -71 45 -77 -7 -5 -5 -13 5 -24 11 -12 15 -34
14 -67 -2 -38 3 -58 20 -81 12 -17 22 -39 22 -48 0 -19 99 -137 110 -130 11 7
46 -22 37 -31 -4 -4 -14 1 -22 12 -14 19 -15 19 -12 -1 1 -11 6 -25 10 -31 4
-7 -3 -14 -19 -17 -29 -5 -189 72 -308 148 -38 24 -72 42 -76 40 -15 -9 4 -72
31 -107 31 -39 37 -54 17 -42 -7 4 -1 -7 13 -25 13 -18 31 -43 39 -54 l15 -21
-35 19 c-50 29 -112 153 -105 212 4 35 1 43 -15 48 -11 4 -20 10 -20 15 0 5
-9 14 -21 21 -20 10 -21 9 -14 -33 7 -43 84 -192 132 -256 38 -50 17 -53 -29
-4 -22 24 -43 40 -46 37 -4 -4 27 -39 68 -79 41 -40 89 -91 105 -113 17 -23
44 -47 60 -54 19 -9 30 -21 30 -34 0 -17 -6 -20 -45 -19 -25 1 -71 5 -102 9
-63 8 -63 9 -48 -31 10 -25 9 -26 -17 -21 -16 3 -37 9 -47 13 -14 6 -17 4 -11
-6 6 -10 -5 -12 -56 -8 -35 3 -65 10 -67 16 -6 19 -25 -7 -42 -57 -17 -51 -36
-63 -44 -29 -2 13 -2 -25 1 -84 3 -60 1 -108 -4 -108 -5 0 -26 36 -47 80 -40
82 -56 98 -56 56 0 -17 -12 -33 -38 -52 -22 -16 -44 -42 -51 -63 -10 -29 -46
-147 -51 -171 -1 -3 -7 11 -13 30 -11 32 -15 35 -53 34 -49 -1 -91 -29 -145
-102 -28 -37 -43 -68 -48 -103 -5 -27 -11 -52 -14 -56 -9 -8 -28 45 -34 95 -3
23 -11 42 -17 43 -6 1 -22 2 -36 2 -18 2 -26 9 -28 26 -4 23 -2 23 52 19 42
-3 56 -1 56 8 0 7 17 25 37 39 42 28 29 34 -20 8 -35 -18 -133 -41 -215 -50
-37 -4 -57 -11 -67 -26 -8 -11 -12 -24 -9 -29 8 -13 48 -9 70 7 24 18 60 19
71 3 4 -7 8 -33 8 -58 1 -51 30 -228 46 -277 6 -18 21 -41 33 -51 42 -32 41
-56 -3 -91 -43 -34 -175 -98 -261 -126 -30 -10 -59 -21 -65 -25 -5 -4 -28 -13
-50 -20 -41 -12 -82 -30 -336 -144 -80 -36 -152 -66 -160 -66 -14 -1 -70 -29
-58 -30 22 -1 283 106 474 194 28 13 93 38 145 56 52 18 131 47 175 65 44 18
91 36 105 40 14 4 39 17 55 30 17 12 50 32 75 45 25 12 57 34 72 48 l27 25 48
-18 c74 -28 88 -41 126 -113 20 -37 50 -80 67 -97 40 -38 90 -135 90 -175 0
-35 25 -90 41 -90 6 0 8 -9 4 -19 -3 -11 -1 -22 5 -26 5 -3 10 -13 10 -20 0
-37 148 -310 232 -429 16 -21 28 -47 28 -58 0 -10 4 -18 10 -18 17 0 68 -85
158 -264 74 -147 91 -174 101 -162 11 13 17 11 42 -16 16 -18 45 -62 65 -98
19 -36 46 -83 60 -105 13 -22 24 -55 24 -72 0 -18 38 -146 84 -285 55 -163 94
-301 110 -388 15 -74 31 -147 36 -162 5 -16 5 -28 1 -28 -5 0 -20 -9 -34 -20
-22 -18 -24 -24 -17 -51 6 -21 5 -37 -3 -49 -9 -16 -7 -23 10 -42 15 -16 20
-34 19 -60 -2 -28 3 -43 20 -59 12 -11 25 -32 29 -47 7 -27 -19 -213 -42 -302
-8 -30 -29 -120 -48 -200 -19 -80 -48 -190 -64 -245 -16 -55 -32 -119 -35
-142 -7 -46 8 -60 18 -18 8 33 22 32 41 -5 15 -30 35 -33 35 -5 0 8 5 17 11
21 19 11 2 -92 -52 -321 -58 -244 -99 -460 -99 -522 0 -24 7 -55 16 -68 35
-54 16 -151 -39 -195 -14 -11 -21 -34 -26 -80 -7 -70 -16 -93 -34 -87 -24 8
-102 -29 -113 -53 -16 -34 -41 -118 -49 -162 l-7 -38 1196 0 1196 0 0 5160 0
5160 -5160 0 -5160 0 0 -5160z m7163 3724 c-15 -23 -19 -25 -21 -11 -2 10 4
30 14 45 15 22 19 24 22 10 2 -9 -5 -29 -15 -44z m48 -286 c-25 -11 -63 -22
-85 -24 -36 -3 -32 -1 29 20 86 30 116 32 56 4z m624 -678 c14 -6 -2 -9 -52
-9 -39 -1 -75 4 -78 9 -8 12 101 12 130 0z m-4363 -172 c-7 -7 -12 -8 -12 -2
0 14 12 26 19 19 2 -3 -1 -11 -7 -17z m-16 -27 c-3 -5 -15 -7 -26 -4 -28 7
-25 13 6 13 14 0 23 -4 20 -9z m294 -31 c0 -5 -5 -10 -11 -10 -5 0 -7 5 -4 10
3 6 8 10 11 10 2 0 4 -4 4 -10z m-193 -126 c-3 -3 -12 -4 -19 -1 -8 3 -5 6 6
6 11 1 17 -2 13 -5z m294 -351 c-12 -20 -14 -14 -5 12 4 9 9 14 11 11 3 -2 0
-13 -6 -23z m-40 -89 c-16 -33 -30 -56 -31 -53 -1 13 51 121 56 116 3 -3 -8
-31 -25 -63z m-64 -152 c-17 -45 -36 -82 -40 -82 -5 0 -5 10 -1 23 11 35 66
149 70 145 2 -3 -11 -41 -29 -86z m4626 -29 c-7 -2 -19 -2 -25 0 -7 3 -2 5 12
5 14 0 19 -2 13 -5z m-4479 -160 c-4 -16 -13 -35 -20 -44 -8 -8 -14 -20 -14
-26 0 -6 -6 -16 -13 -22 -11 -8 -14 -5 -14 19 0 17 4 30 9 30 5 0 16 16 25 35
20 42 36 46 27 8z m3426 -738 c-7 -8 -17 -15 -23 -15 -5 0 -2 9 8 20 21 23 35
19 15 -5z m-85 -201 c-3 -30 -11 -54 -16 -54 -12 0 -11 18 3 82 14 65 23 47
13 -28z m-395 -135 c0 -6 -4 -7 -10 -4 -5 3 -10 11 -10 16 0 6 5 7 10 4 6 -3
10 -11 10 -16z m-3 -121 c-3 -7 -5 -2 -5 12 0 14 2 19 5 13 2 -7 2 -19 0 -25z
m2740 -270 c-2 -13 -4 -3 -4 22 0 25 2 35 4 23 2 -13 2 -33 0 -45z m-5537
-278 c0 -11 -20 -57 -44 -103 -25 -47 -42 -88 -39 -91 4 -3 -1 -12 -10 -19 -9
-6 -28 -41 -42 -76 -13 -34 -41 -82 -62 -105 -21 -23 -56 -78 -78 -123 -22
-45 -48 -85 -58 -88 -29 -11 -92 -77 -103 -110 -33 -92 -41 -123 -34 -134 9
-15 -30 -101 -46 -101 -7 0 -11 -16 -10 -42 1 -35 -2 -43 -19 -46 -30 -6 -54
-31 -82 -86 -14 -27 -49 -80 -78 -118 -29 -38 -57 -79 -62 -91 -78 -174 -183
-351 -198 -335 -8 8 18 75 64 164 34 68 41 91 41 140 0 33 -4 74 -9 91 -11 36
0 51 19 28 21 -25 58 -18 89 18 16 17 60 91 98 164 l68 131 -27 56 c-25 49
-26 56 -10 56 9 0 32 -9 50 -20 44 -27 49 -26 56 18 11 62 40 136 58 150 10 7
18 21 18 30 0 9 11 39 25 66 14 27 25 53 25 58 0 4 7 16 16 26 21 23 134 181
134 187 0 3 -9 5 -19 5 -11 0 -23 5 -27 12 -5 8 -2 9 9 5 27 -10 43 1 87 60
33 42 41 61 38 84 -4 26 -3 28 12 14 20 -18 25 -14 89 87 42 66 61 77 61 38z
m40 13 c0 -10 -5 -25 -10 -33 -7 -11 -10 -7 -10 18 0 17 5 32 10 32 6 0 10 -8
10 -17z m-120 -38 c-7 -9 -15 -13 -17 -11 -7 7 7 26 19 26 6 0 6 -6 -2 -15z
m100 -214 c0 -5 -9 -7 -20 -4 -11 3 -20 7 -20 9 0 2 9 4 20 4 11 0 20 -4 20
-9z m-363 -7 c-3 -3 -12 -4 -19 -1 -8 3 -5 6 6 6 11 1 17 -2 13 -5z m267 -90
c19 -7 22 -34 4 -34 -15 1 -48 24 -48 34 0 8 24 8 44 0z m-442 -136 c-7 -7
-12 -8 -12 -2 0 6 3 14 7 17 3 4 9 5 12 2 2 -3 -1 -11 -7 -17z m1609 -51 c-1
-4 -2 -24 -2 -44 -1 -21 -3 -30 -6 -20 -2 9 -11 17 -19 17 -11 0 -13 -7 -8
-27 4 -16 11 -33 15 -39 7 -8 -2 -11 -27 -10 -33 1 -40 -4 -73 -49 -19 -27
-56 -88 -81 -134 -25 -47 -51 -86 -57 -89 -31 -9 -7 45 66 155 43 65 91 141
106 168 28 52 61 88 77 83 5 -2 9 -7 9 -11z m-148 -107 c-21 -38 -46 -80 -56
-92 l-17 -23 9 27 c24 67 78 158 93 158 5 0 -8 -31 -29 -70z m-1228 -20 c25
-26 26 -30 9 -29 -38 2 -59 14 -62 37 -5 31 18 28 53 -8z m82 -2 c55 -30 74
-48 48 -48 -24 0 -67 25 -95 55 -28 31 -26 31 47 -7z m1620 -5 c7 -9 16 -33
19 -52 4 -20 15 -55 26 -79 10 -24 18 -52 18 -62 0 -11 -38 -59 -85 -107 l-85
-88 -31 38 c-36 44 -124 91 -188 101 -24 4 -47 9 -52 11 -14 9 42 216 66 241
17 18 29 19 167 16 108 -3 135 -6 145 -19z m-2102 -403 c-9 -16 -18 -30 -21
-30 -2 0 2 14 11 30 9 17 18 30 21 30 2 0 -2 -13 -11 -30z m89 -95 c-6 -16
-24 -21 -24 -7 0 11 11 22 21 22 5 0 6 -7 3 -15z m64 3 c-6 -18 -28 -21 -28
-4 0 9 7 16 16 16 9 0 14 -5 12 -12z m-355 -115 c3 -16 1 -32 -4 -37 -6 -6 -9
-5 -9 5 0 7 -3 24 -6 37 -4 12 -2 22 4 22 5 0 12 -12 15 -27z m234 -65 c18 -5
35 -14 39 -20 5 -8 2 -9 -10 -5 -10 4 -31 7 -46 7 -38 0 -56 30 -38 63 12 22
12 22 18 -7 4 -23 12 -32 37 -38z m-1022 -1 c-27 -47 -33 -105 -14 -154 13
-36 74 -99 122 -126 l38 -21 -36 -33 c-40 -37 -54 -38 -172 -23 -84 11 -159
45 -197 90 -26 31 -30 48 -26 105 6 99 140 203 263 205 l48 0 -26 -43z m1416
-344 c13 -16 12 -17 -3 -4 -17 13 -22 21 -14 21 2 0 10 -8 17 -17z m-106 -63
c3 -5 -3 -10 -14 -10 -11 0 -23 -4 -26 -10 -4 -6 8 -10 29 -10 33 0 36 -2 36
-29 0 -15 -9 -40 -20 -54 -44 -55 -11 -126 103 -224 l38 -33 -33 -20 c-117
-71 -261 -12 -275 114 -10 83 26 172 101 254 31 33 50 40 61 22z m487 -185
l37 -7 -53 -71 c-56 -76 -86 -128 -86 -149 0 -7 -9 -24 -20 -38 -16 -20 -20
-22 -20 -7 0 9 5 17 10 17 15 0 12 33 -11 155 -13 64 -19 122 -15 138 l6 27
58 -29 c32 -16 75 -32 94 -36z m348 -110 c0 -10 -16 -4 -40 16 l-25 20 33 -16
c17 -8 32 -18 32 -20z m-593 -17 c-3 -7 -5 -2 -5 12 0 14 2 19 5 13 2 -7 2
-19 0 -25z m-787 -218 c0 -9 -9 -15 -22 -15 -13 -1 -38 -4 -55 -8 -31 -6 -33
-5 -33 21 0 15 7 37 15 49 l16 22 39 -27 c22 -15 39 -34 40 -42z m-9 53 c13
-15 12 -15 -8 -4 -24 12 -29 21 -14 21 5 0 15 -7 22 -17z m-551 -283 c0 -6 -9
-5 -20 2 -11 7 -20 16 -20 21 0 4 9 3 20 -3 11 -6 20 -15 20 -20z m120 -41 c0
-15 4 -19 16 -15 13 5 15 1 10 -19 -4 -14 -2 -25 4 -25 5 0 10 -5 10 -11 0 -6
-15 2 -33 18 -21 17 -34 37 -33 50 1 29 26 30 26 2z m-160 -31 c0 -13 -5 -9
-31 19 l-24 26 27 -19 c15 -10 28 -22 28 -26z m-5 -28 c3 -5 -1 -10 -9 -10 -9
0 -16 5 -16 10 0 6 4 10 9 10 6 0 13 -4 16 -10z m35 -46 c0 -9 -28 -3 -46 11
-17 13 -16 14 14 4 17 -6 32 -13 32 -15z m105 -34 l28 -29 -32 12 c-17 6 -29
17 -27 24 3 6 0 14 -7 17 -7 2 -7 5 -1 5 5 1 23 -12 39 -29z m-1077 -570 c38
-35 38 -37 13 -64 -11 -12 -31 -43 -45 -69 -21 -41 -23 -48 -8 -45 9 2 31 24
47 50 17 26 33 48 38 48 4 0 7 -16 7 -37 0 -32 -8 -43 -62 -92 -33 -31 -64
-57 -68 -59 -9 -3 -19 221 -13 266 4 27 9 32 32 32 15 0 40 -13 59 -30z m67
-20 c8 -16 15 -42 14 -57 -1 -24 -3 -22 -12 13 -7 23 -18 49 -26 58 -8 10 -9
16 -2 16 6 0 17 -13 26 -30z m75 -120 c-11 -22 -23 -40 -25 -40 -3 0 4 18 15
40 11 22 23 40 25 40 3 0 -4 -18 -15 -40z m1812 -67 c-25 -35 -61 -68 -67 -61
-5 5 72 88 81 88 3 0 -3 -12 -14 -27z m-2875 -525 c-2 -13 -4 -5 -4 17 -1 22
1 32 4 23 2 -10 2 -28 0 -40z m1641 -14 c12 -8 22 -23 22 -33 0 -9 5 -22 12
-29 9 -9 9 -27 0 -77 -18 -94 -29 -120 -46 -106 -8 7 -12 20 -9 30 6 22 -20
31 -94 31 -60 0 -58 -4 -42 90 14 89 24 98 119 108 9 1 26 -5 38 -14z m-1468
-500 c0 -8 -4 -14 -10 -14 -5 0 -10 9 -10 21 0 11 5 17 10 14 6 -3 10 -13 10
-21z m1980 -64 c0 -5 -4 -10 -9 -10 -5 0 -18 -3 -28 -6 -16 -5 -16 -4 1 10 23
18 36 20 36 6z m-148 -212 c-9 -9 -12 -1 -11 33 l1 44 11 -33 c7 -24 7 -36 -1
-44z"/>
<path d="M3436 4166 c3 -9 11 -16 16 -16 13 0 5 23 -10 28 -7 2 -10 -2 -6 -12z"/>
<path d="M4035 7939 c-27 -16 -61 -34 -75 -40 -36 -14 -143 -70 -155 -80 -5
-5 0 -9 13 -9 12 0 22 4 22 10 0 5 11 12 25 16 14 3 25 10 25 15 0 5 5 9 11 9
5 0 35 11 65 25 30 14 58 25 62 25 4 0 22 14 40 30 41 37 31 37 -33 -1z"/>
<path d="M4167 7783 c-14 -13 -6 -20 18 -15 14 2 28 8 31 13 6 10 -39 12 -49
2z"/>
<path d="M4274 7750 c-35 -14 -102 -100 -79 -100 5 0 72 67 97 98 12 14 11 14
-18 2z"/>
<path d="M4075 7699 c-4 -6 -5 -12 -2 -15 2 -3 7 2 10 11 7 17 1 20 -8 4z"/>
<path d="M3972 7410 c-7 -11 -8 -20 -3 -20 9 0 24 30 18 36 -1 2 -8 -6 -15
-16z"/>
<path d="M4898 7359 c-21 -22 -42 -38 -47 -35 -5 3 -16 -10 -26 -30 -9 -19
-27 -39 -39 -44 -13 -5 -35 -23 -50 -42 -20 -25 -28 -30 -35 -20 -6 11 -14 9
-34 -10 -64 -59 -89 -79 -93 -75 -2 2 3 20 11 40 38 91 -3 89 -52 -3 -43 -80
-103 -170 -115 -170 -4 0 -8 -4 -8 -10 0 -5 6 -10 14 -10 11 0 12 -8 6 -34
-10 -44 -19 -58 -35 -52 -17 6 -40 -44 -24 -54 12 -8 3 -50 -11 -50 -4 0 -10
-9 -13 -21 -4 -14 -10 -18 -19 -13 -7 4 -10 4 -6 -1 4 -4 1 -20 -7 -36 -16
-30 -20 -59 -7 -59 4 0 16 14 27 30 11 16 26 30 32 30 7 0 18 9 25 19 6 10 18
17 26 14 8 -4 12 0 10 8 -1 8 7 25 20 39 l22 26 110 -15 c109 -15 110 -15 110
-42 0 -30 34 -79 56 -79 12 0 11 5 -5 26 -26 34 -27 61 -1 69 26 8 40 -1 40
-29 0 -22 17 -46 32 -46 5 0 13 11 18 25 11 28 37 33 47 9 3 -9 1 -25 -6 -36
-16 -26 -10 -32 14 -14 17 12 24 11 55 -8 33 -21 70 -24 70 -7 0 11 -40 53
-70 72 -14 9 -22 20 -19 23 3 3 23 -7 44 -24 21 -16 43 -30 49 -30 10 1 -5 16
-62 61 -23 18 -23 20 -10 61 14 41 16 43 54 41 37 -2 37 -1 9 7 -30 8 -29 8
10 10 l40 2 -39 12 c-22 7 -41 17 -43 23 -2 6 12 49 32 96 19 47 35 95 35 107
0 12 5 18 10 15 6 -3 10 0 10 8 0 8 6 20 14 26 25 21 33 -10 39 -144 4 -111 9
-141 33 -205 27 -69 29 -72 32 -42 3 29 5 32 19 20 14 -11 15 -11 6 7 -6 11
-14 41 -17 67 -10 68 -25 69 -20 1 l4 -58 -15 65 c-27 128 -35 177 -35 231 0
59 -18 96 -42 87 -8 -3 -27 -33 -43 -67 -16 -33 -31 -59 -33 -56 -2 2 4 27 13
55 9 28 21 79 25 113 4 34 11 71 15 82 6 16 3 15 -14 -5 -11 -14 -21 -38 -21
-55 0 -16 -7 -52 -15 -80 -9 -27 -26 -97 -40 -153 -13 -57 -26 -106 -29 -109
-8 -8 -116 45 -116 57 0 7 9 25 20 40 33 47 70 138 69 173 0 26 -4 21 -20 -31
-11 -35 -36 -84 -55 -108 -19 -25 -34 -50 -34 -55 0 -6 -10 -8 -22 -4 -15 4
-19 3 -10 -3 13 -9 7 -42 -8 -42 -4 0 -13 7 -20 15 -7 8 -17 15 -23 15 -6 0 1
-12 16 -28 19 -20 24 -31 17 -42 -5 -8 -10 -22 -10 -30 0 -8 6 -4 13 10 10 19
19 24 42 22 27 -2 28 -1 13 11 -16 13 -25 37 -14 37 3 0 35 -16 73 -36 37 -20
57 -33 43 -30 -14 4 -38 9 -55 11 -25 5 -27 4 -10 -5 11 -5 33 -14 48 -20 23
-8 27 -14 22 -33 -4 -12 -11 -26 -15 -30 -7 -7 -112 18 -173 42 -16 6 -34 11
-40 11 -25 0 21 -21 103 -47 47 -14 89 -30 94 -34 24 -22 -9 -17 -95 12 -51
17 -104 31 -118 31 -14 0 -43 9 -63 19 -21 11 -44 19 -53 19 -8 0 -15 7 -15
15 0 8 4 15 8 15 9 0 146 181 194 256 15 23 48 59 73 80 87 71 135 125 135
150 0 33 -9 30 -52 -17z m-189 -241 c-13 -18 -61 -77 -107 -131 -121 -142
-144 -145 -87 -15 33 75 62 114 119 158 18 14 19 14 8 -7 -7 -12 -22 -29 -34
-37 -45 -32 -4 -15 53 22 32 20 58 44 59 52 1 10 3 11 7 3 2 -7 -6 -27 -18
-45z"/>
<path d="M3905 7340 c-3 -5 -1 -10 4 -10 6 0 11 5 11 10 0 6 -2 10 -4 10 -3 0
-8 -4 -11 -10z"/>
<path d="M5864 7283 c-3 -15 -12 -54 -20 -86 -17 -72 -17 -72 1 -57 8 7 15 18
15 25 0 8 4 15 9 17 11 4 20 117 10 124 -5 3 -11 -8 -15 -23z"/>
<path d="M3990 7239 c0 -5 5 -7 10 -4 6 3 10 8 10 11 0 2 -4 4 -10 4 -5 0 -10
-5 -10 -11z"/>
<path d="M3956 7211 c-4 -7 -5 -15 -2 -18 9 -9 19 4 14 18 -4 11 -6 11 -12 0z"/>
<path d="M6030 7190 c0 -40 77 -242 115 -300 23 -36 40 -71 37 -78 -4 -13 24
-17 32 -4 6 10 -19 62 -37 77 -14 11 -54 91 -67 132 -35 113 -80 210 -80 173z"/>
<path d="M4300 7180 c0 -5 5 -10 10 -10 6 0 10 5 10 10 0 6 -4 10 -10 10 -5 0
-10 -4 -10 -10z"/>
<path d="M4295 7150 c-3 -5 1 -10 9 -10 9 0 16 5 16 10 0 6 -4 10 -9 10 -6 0
-13 -4 -16 -10z"/>
<path d="M4204 7122 c-18 -9 -41 -35 -53 -58 -28 -52 -149 -246 -161 -258 -6
-6 -10 -18 -10 -28 0 -15 4 -16 23 -7 20 9 77 85 77 102 0 4 34 59 76 123 70
107 92 145 83 143 -2 0 -18 -8 -35 -17z"/>
<path d="M3867 7093 c-4 -3 -7 -11 -7 -17 0 -6 5 -5 12 2 6 6 9 14 7 17 -3 3
-9 2 -12 -2z"/>
<path d="M5915 7055 c6 -29 28 -94 66 -187 10 -26 19 -49 19 -52 0 -8 -193 -6
-254 2 -27 4 -51 12 -53 17 -2 6 17 46 42 89 47 83 51 113 9 61 -31 -38 -127
-235 -119 -244 4 -3 13 3 20 13 13 17 19 18 77 6 35 -6 118 -13 185 -13 114
-2 124 -4 138 -24 17 -25 27 -22 -155 -42 -75 -8 -69 -8 50 -4 118 5 137 4
149 -11 20 -24 11 -27 -45 -17 -27 5 -101 6 -165 2 -106 -6 -120 -10 -152 -34
-20 -15 -40 -27 -45 -27 -5 0 -17 -9 -27 -20 -17 -19 -17 -20 -1 -20 10 0 47
12 83 26 75 30 208 39 235 16 13 -10 17 -10 21 2 10 25 67 -2 67 -31 0 -29 23
-30 49 -2 24 26 66 23 66 -6 0 -30 -60 -57 -109 -49 -27 4 -36 3 -32 -5 4 -6
30 -11 58 -11 47 0 54 3 90 41 34 35 42 40 69 34 29 -7 31 -5 24 16 -12 38
-25 49 -62 49 -19 0 -32 4 -29 9 3 5 -3 11 -14 14 -11 3 -20 10 -20 16 0 7 16
8 47 4 33 -4 44 -3 39 5 -4 6 -28 14 -55 18 -40 5 -49 10 -58 35 -11 28 -10
28 31 38 l41 9 -42 1 c-43 1 -58 16 -25 24 11 3 7 5 -10 6 -24 1 -28 8 -53 89
-27 86 -53 137 -40 77 7 -34 42 -156 51 -180 4 -9 0 -15 -10 -15 -9 0 -13 6
-10 14 3 8 -3 15 -14 18 -12 4 -30 33 -52 89 -49 124 -82 191 -75 154z m-10
-265 l110 -8 -160 1 c-164 0 -189 3 -179 18 2 5 31 6 62 3 31 -3 107 -9 167
-14z m187 -65 c3 -14 4 -25 3 -25 -2 0 -10 11 -19 25 -13 20 -14 25 -2 25 7 0
16 -11 18 -25z"/>
<path d="M4695 7010 c3 -5 8 -10 11 -10 2 0 4 5 4 10 0 6 -5 10 -11 10 -5 0
-7 -4 -4 -10z"/>
<path d="M5543 6917 c-27 -44 -83 -162 -83 -173 0 -2 4 -4 9 -4 12 0 117 218
108 226 -2 2 -17 -20 -34 -49z"/>
<path d="M5607 6921 c-4 -18 -6 -52 -6 -75 1 -37 2 -35 10 19 10 67 7 109 -4
56z"/>
<path d="M5236 6899 c-9 -47 -7 -149 3 -124 14 33 24 155 13 155 -5 0 -12 -14
-16 -31z"/>
<path d="M5406 6887 c-27 -65 -29 -77 -11 -77 9 0 18 12 22 30 3 17 9 30 14
30 12 0 11 37 -1 45 -5 3 -16 -9 -24 -28z"/>
<path d="M4322 6860 c0 -14 2 -19 5 -12 2 6 2 18 0 25 -3 6 -5 1 -5 -13z"/>
<path d="M4146 6843 c-4 -9 -2 -21 4 -27 7 -7 10 -2 10 17 0 31 -5 34 -14 10z"/>
<path d="M4325 6810 c-4 -12 -5 -24 -2 -27 3 -2 8 5 12 17 4 12 5 24 2 27 -3
2 -8 -5 -12 -17z"/>
<path d="M5282 6770 c0 -14 2 -19 5 -12 2 6 2 18 0 25 -3 6 -5 1 -5 -13z"/>
<path d="M5360 6765 c-7 -16 -24 -54 -37 -83 -14 -29 -23 -55 -21 -58 8 -7 54
67 67 109 16 47 8 73 -9 32z"/>
<path d="M5592 6770 c0 -14 2 -19 5 -12 2 6 2 18 0 25 -3 6 -5 1 -5 -13z"/>
<path d="M6254 6746 c-3 -8 5 -34 17 -58 12 -23 24 -38 26 -31 2 6 -5 29 -16
51 -11 22 -17 42 -14 46 4 3 3 6 -1 6 -3 0 -9 -6 -12 -14z"/>
<path d="M5582 6685 c-7 -14 -12 -31 -12 -38 1 -17 40 32 40 49 0 23 -16 16
-28 -11z"/>
<path d="M4442 6668 c5 -13 132 -58 162 -57 14 0 10 5 -15 14 -19 7 -54 22
-77 34 -46 23 -76 27 -70 9z"/>
<path d="M5680 6660 c-18 -12 -2 -12 25 0 13 6 15 9 5 9 -8 0 -22 -4 -30 -9z"/>
<path d="M6290 6615 c0 -16 32 -65 43 -65 6 0 22 -3 35 -6 30 -9 28 8 -7 45
-25 26 -71 43 -71 26z"/>
<path d="M4788 6593 c12 -2 32 -2 45 0 12 2 2 4 -23 4 -25 0 -35 -2 -22 -4z"/>
<path d="M6531 6537 c-1 -32 33 -87 53 -87 8 0 26 -16 40 -35 15 -19 31 -35
37 -35 5 0 -12 28 -38 63 -26 35 -58 77 -70 93 l-22 29 0 -28z"/>
<path d="M7100 6540 c-31 -6 -27 -8 25 -9 52 -1 66 -5 98 -32 45 -37 50 -19 5
22 -34 30 -58 34 -128 19z"/>
<path d="M5730 6501 c0 -11 179 -66 187 -58 3 4 4 9 1 13 -10 9 -188 52 -188
45z"/>
<path d="M6470 6464 c0 -5 11 -25 24 -43 14 -19 28 -46 31 -62 4 -16 14 -33
23 -38 9 -5 14 -13 10 -16 -8 -9 39 -105 51 -105 4 0 -7 37 -25 83 -18 45 -39
103 -46 130 -13 51 -25 60 -30 25 -3 -22 -4 -21 -20 7 -10 17 -17 25 -18 19z"/>
<path d="M6298 6442 c-64 -23 -73 -36 -18 -28 24 4 53 16 63 26 21 24 17 24
-45 2z"/>
<path d="M7390 6449 c0 -8 16 -30 35 -49 45 -44 45 -23 0 27 -22 24 -35 32
-35 22z"/>
<path d="M7282 6430 c7 -10 14 -18 15 -16 6 6 -9 36 -18 36 -5 0 -4 -9 3 -20z"/>
<path d="M7588 6409 c17 -19 32 -40 32 -46 0 -6 7 -16 15 -23 12 -10 15 -10
15 2 0 21 -26 54 -63 79 l-32 22 33 -34z"/>
<path d="M6903 6401 c-10 -18 -23 -40 -30 -49 -12 -16 -12 -16 -13 1 0 9 -4
17 -8 17 -17 0 -20 -12 -10 -35 7 -17 6 -30 -6 -53 -21 -41 -20 -50 2 -21 31
40 95 160 88 166 -3 3 -13 -9 -23 -26z"/>
<path d="M7547 6334 c-7 -7 14 -44 25 -44 5 0 8 6 8 14 0 16 -24 38 -33 30z"/>
<path d="M7837 6309 c7 -7 15 -10 18 -7 3 3 -2 9 -12 12 -14 6 -15 5 -6 -5z"/>
<path d="M7430 6237 c0 -13 3 -17 8 -11 4 6 14 13 22 16 10 3 8 6 -8 10 -18 5
-22 2 -22 -15z"/>
<path d="M6885 6218 c9 -30 42 -64 52 -54 4 4 0 12 -8 17 -9 5 -20 20 -23 34
-4 14 -11 25 -17 25 -6 0 -8 -9 -4 -22z"/>
<path d="M6711 6220 c-1 -8 -4 -25 -7 -37 -6 -22 7 -26 34 -10 17 11 15 30 -2
24 -10 -4 -16 2 -19 16 -2 12 -5 15 -6 7z"/>
<path d="M6686 6115 c-4 -20 -5 -39 -3 -42 9 -8 25 54 17 67 -5 7 -10 -2 -14
-25z"/>
<path d="M6910 6110 c-87 -8 -132 -19 -125 -30 3 -5 14 -6 26 -3 19 5 20 3 14
-31 -7 -34 -6 -36 18 -36 14 0 38 11 54 24 15 13 39 27 53 31 55 16 95 57 53
53 -10 0 -52 -4 -93 -8z"/>
<path d="M4950 6069 c0 -14 35 -59 45 -59 8 0 6 5 -20 40 -14 19 -25 27 -25
19z"/>
<path d="M5140 6010 c0 -12 27 -12 55 0 16 7 13 9 -17 9 -21 1 -38 -3 -38 -9z"/>
<path d="M7130 5986 c-71 -34 -92 -47 -87 -52 5 -5 104 43 137 65 26 18 -3 11
-50 -13z"/>
<path d="M6995 5910 c-3 -6 1 -7 9 -4 18 7 21 14 7 14 -6 0 -13 -4 -16 -10z"/>
<path d="M4715 5800 c-3 -6 -3 -19 0 -30 5 -15 15 -20 41 -20 19 0 51 -7 71
-15 21 -9 76 -22 123 -30 47 -7 135 -27 195 -43 61 -17 137 -33 170 -36 45 -5
21 4 -95 34 -85 22 -175 47 -200 55 -25 8 -90 22 -145 31 -110 18 -135 27
-135 49 0 17 -16 20 -25 5z"/>
<path d="M6650 5735 c0 -13 4 -14 20 -5 11 6 20 13 20 15 0 3 -9 5 -20 5 -11
0 -20 -7 -20 -15z"/>
<path d="M5440 4745 c-8 -9 -8 -15 -2 -15 18 0 42 12 42 21 0 14 -26 10 -40
-6z"/>
<path d="M6460 4321 c-91 -46 -144 -80 -137 -88 5 -5 165 85 172 97 8 13 6 12
-35 -9z"/>
<path d="M6100 4120 c0 -17 -124 -142 -200 -201 -41 -32 -91 -71 -110 -88 -31
-28 -33 -31 -13 -31 12 0 49 24 85 55 35 31 93 76 130 101 40 26 79 62 95 87
16 23 36 48 45 55 25 19 22 32 -7 32 -14 0 -25 -4 -25 -10z"/>
<path d="M7380 3941 c0 -5 6 -12 13 -14 7 -4 6 -6 -5 -6 -9 -1 -18 3 -20 8 -1
5 -9 3 -16 -5 -11 -12 -9 -14 7 -14 20 0 71 -57 71 -79 0 -6 25 -37 56 -69 31
-31 68 -72 82 -90 18 -23 30 -31 44 -26 12 3 17 1 16 -6 -2 -7 3 -15 10 -17
24 -9 11 24 -23 57 -19 19 -35 39 -35 46 0 7 -12 22 -26 33 -15 12 -24 21 -21
21 4 0 -13 19 -36 43 -23 23 -42 44 -42 47 0 3 -13 22 -29 43 -27 36 -46 47
-46 28z"/>
<path d="M8270 2674 c0 -6 7 -19 16 -30 14 -18 14 -18 3 6 -14 31 -19 36 -19
24z"/>
<path d="M8162 2635 c1 -16 8 -38 16 -47 13 -16 13 -18 -1 -18 -13 0 -17 -10
-17 -45 0 -29 4 -45 13 -45 8 0 7 -4 -3 -11 -12 -9 -11 -10 8 -6 12 3 20 2 17
-3 -5 -8 35 -27 70 -32 14 -2 23 -19 37 -68 10 -36 16 -50 13 -31 -3 18 -5 46
-5 62 0 17 -12 42 -31 63 -17 20 -50 75 -75 123 -33 68 -43 81 -42 58z m15
-127 c-3 -8 -6 -5 -6 6 -1 11 2 17 5 13 3 -3 4 -12 1 -19z m73 -53 c7 -9 8
-15 2 -15 -5 0 -12 7 -16 15 -3 8 -4 15 -2 15 2 0 9 -7 16 -15z"/>
<path d="M5461 2266 c-7 -8 -8 -17 -3 -20 6 -3 13 1 16 10 9 23 2 28 -13 10z"/>
<path d="M5436 2214 c-4 -9 -4 -19 -1 -22 2 -3 7 3 11 12 4 9 4 19 1 22 -2 3
-7 -3 -11 -12z"/>
<path d="M8288 2188 c-8 -13 -23 -38 -32 -57 l-18 -34 26 5 c18 4 26 1 26 -8
0 -8 5 -14 10 -14 6 0 10 12 10 28 0 15 3 44 6 65 7 42 -6 49 -28 15z"/>
<path d="M5398 2045 c-7 -15 -17 -24 -25 -21 -8 3 -13 -2 -13 -14 0 -11 -4
-20 -10 -20 -5 0 -10 -7 -10 -15 0 -8 -4 -23 -9 -33 -5 -9 -24 -57 -42 -107
-18 -49 -47 -122 -66 -161 -18 -40 -33 -74 -33 -78 0 -3 -14 -36 -31 -72 -17
-37 -32 -85 -33 -107 -1 -31 -14 -63 -51 -122 -59 -97 -54 -90 -61 -82 -3 3 1
30 10 60 19 66 21 110 4 105 -6 -2 -17 -31 -24 -64 -15 -70 -72 -216 -107
-276 -27 -46 -73 -98 -85 -98 -5 0 -16 -17 -25 -38 -17 -39 -109 -113 -218
-175 -63 -37 -86 -64 -98 -117 -14 -60 -14 -58 14 -84 24 -22 24 -24 9 -62
-13 -33 -25 -44 -72 -66 -31 -15 -86 -43 -122 -62 -36 -20 -199 -102 -364
-183 l-298 -148 491 -3 492 -2 37 25 c45 31 55 31 67 3 l10 -23 720 -2 720 -3
-44 20 c-73 34 -160 42 -511 47 -184 3 -337 8 -340 12 -3 4 -33 21 -67 39 -46
24 -67 31 -80 24 -30 -16 -182 -31 -281 -29 -92 2 -93 2 -90 27 2 16 11 26 28
30 40 10 37 38 -5 46 -20 3 -34 11 -32 17 3 9 189 59 205 55 12 -3 82 26 82
34 0 4 7 8 15 8 8 0 15 5 15 10 0 6 5 10 12 10 15 0 198 110 198 119 0 4 23
20 50 36 78 46 67 53 -50 34 -76 -12 -148 -57 -114 -70 18 -7 18 -8 -1 -8 -38
-2 -104 -35 -107 -55 -2 -13 -13 -20 -33 -22 -35 -4 -171 -29 -267 -50 -37 -7
-71 -14 -77 -14 -5 0 -23 30 -41 68 -17 37 -45 81 -61 98 -31 32 -31 36 -13
117 1 4 2 15 3 25 1 13 25 32 74 57 39 21 74 41 77 45 10 14 123 70 142 70 34
0 68 45 68 90 0 33 9 52 43 97 106 143 235 380 244 453 3 25 14 61 23 80 29
58 80 207 116 339 18 69 37 136 43 150 17 46 20 61 15 61 -2 0 -10 -11 -16
-25z"/>
<path d="M4026 1978 c-7 -29 -8 -53 -1 -46 11 10 23 68 15 68 -4 0 -10 -10
-14 -22z"/>
<path d="M875 1121 c-3 -6 1 -11 10 -11 20 0 16 -33 -16 -164 -11 -43 -18 -80
-16 -82 1 -2 16 35 31 82 33 103 39 177 14 182 -9 2 -19 -2 -23 -7z"/>
<path d="M973 943 c9 -2 23 -2 30 0 6 3 -1 5 -18 5 -16 0 -22 -2 -12 -5z"/>
<path d="M1438 833 c12 -2 30 -2 40 0 9 3 -1 5 -23 4 -22 0 -30 -2 -17 -4z"/>
<path d="M1252 423 c15 -10 33 -30 39 -45 11 -27 14 -28 85 -28 40 0 76 -4 79
-10 3 -5 15 -15 26 -21 20 -10 20 -9 5 19 -18 35 -56 47 -119 38 -40 -6 -43
-4 -65 29 -17 26 -29 35 -50 35 l-27 -1 27 -16z"/>
<path d="M1630 415 c13 -14 26 -23 28 -20 7 7 -29 45 -41 45 -6 0 0 -11 13
-25z"/>
<path d="M2038 358 c-29 -23 -57 -48 -63 -54 -5 -7 -37 -18 -71 -25 -51 -10
-75 -10 -155 5 -52 10 -121 16 -154 14 -56 -4 -54 -4 20 -6 54 -1 88 -7 103
-17 15 -11 50 -16 120 -18 109 -2 109 -3 215 95 64 59 57 62 -15 6z"/>
<path d="M7336 326 c-31 -41 -32 -46 -7 -46 13 0 23 11 31 36 16 48 8 51 -24
10z"/>
<path d="M7583 288 c-4 -7 -20 -40 -36 -73 -16 -33 -35 -68 -44 -77 -12 -13
-14 -30 -8 -77 l7 -61 64 0 c35 0 64 2 64 4 0 2 -16 27 -35 56 -19 29 -35 58
-35 65 0 7 11 46 25 87 14 40 25 76 25 81 0 12 -18 8 -27 -5z"/>
<path d="M2410 199 c-52 -39 -137 -99 -189 -132 l-93 -62 42 -3 c37 -3 51 4
133 59 176 120 238 170 235 187 -6 32 -34 22 -128 -49z"/>
<path d="M6027 263 c-32 -2 -55 -8 -52 -12 2 -5 -26 -7 -63 -5 l-67 4 65 -15
c75 -18 85 -20 163 -35 32 -6 66 -9 75 -7 12 3 10 5 -5 6 -13 0 -23 6 -23 12
0 5 -5 7 -11 4 -6 -4 -27 -4 -46 0 -24 4 -32 9 -24 15 11 6 11 9 0 13 -8 3 16
6 54 6 37 1 67 5 67 11 0 10 -14 10 -133 3z"/>
<path d="M6181 254 c9 -11 8 -14 0 -14 -7 0 -19 -7 -27 -15 -13 -12 -13 -15
-1 -15 7 0 17 3 21 7 21 21 87 33 166 28 72 -3 77 -3 30 4 -30 5 -88 11 -128
14 -60 4 -70 2 -61 -9z"/>
<path d="M6240 232 c0 -5 -10 -14 -22 -20 l-23 -11 23 0 c12 -1 22 3 22 7 0 5
10 14 23 20 l22 11 -22 0 c-13 1 -23 -3 -23 -7z"/>
<path d="M6488 233 c7 -3 16 -2 19 1 4 3 -2 6 -13 5 -11 0 -14 -3 -6 -6z"/>
<path d="M6408 223 c6 -2 18 -2 25 0 6 3 1 5 -13 5 -14 0 -19 -2 -12 -5z"/>
<path d="M6524 219 c-4 -6 -19 -9 -38 -5 -22 4 -27 3 -16 -4 22 -14 82 -11
104 5 19 14 18 15 -11 15 -18 0 -35 -5 -39 -11z"/>
<path d="M1762 210 c5 -16 83 -42 113 -37 11 1 -4 8 -34 15 -30 7 -61 18 -69
25 -12 10 -14 9 -10 -3z"/>
<path d="M6305 211 c29 -12 135 -23 135 -14 0 5 -19 9 -43 10 -23 1 -58 5 -77
7 -24 4 -29 3 -15 -3z"/>
<path d="M6620 203 c8 -3 19 -11 23 -17 6 -7 7 -6 4 4 -2 8 -12 16 -23 17 -13
2 -15 1 -4 -4z"/>
<path d="M6193 183 c9 -2 25 -2 35 0 9 3 1 5 -18 5 -19 0 -27 -2 -17 -5z"/>
<path d="M6333 183 c9 -2 25 -2 35 0 9 3 1 5 -18 5 -19 0 -27 -2 -17 -5z"/>
<path d="M6480 180 c0 -7 19 -8 53 -4 70 9 72 14 4 14 -33 0 -57 -4 -57 -10z"/>
<path d="M6408 173 c6 -2 18 -2 25 0 6 3 1 5 -13 5 -14 0 -19 -2 -12 -5z"/>
<path d="M7171 113 c-5 -10 -12 -40 -16 -68 l-8 -50 23 28 c12 15 20 34 17 41
-3 8 3 22 14 32 10 9 19 21 19 26 0 15 -39 8 -49 -9z"/>
<path d="M1571 93 c7 -10 15 -20 16 -22 2 -2 3 5 3 17 0 14 -6 22 -16 22 -14
0 -15 -3 -3 -17z"/>
<path d="M2990 100 c0 -5 5 -10 10 -10 6 0 10 5 10 10 0 6 -4 10 -10 10 -5 0
-10 -4 -10 -10z"/>
</g>
</svg>
